<svg width="66" height="69" viewBox="0 0 66 69" fill="none" xmlns="http://www.w3.org/2000/svg">
<rect x="14" y="17" width="9" height="37" rx="4.5" fill="#FF0000"/>
<rect x="43" y="15" width="9" height="37" rx="4.5" fill="#FF0000"/>
<rect x="14" y="46" width="9" height="23" transform="rotate(-90 14 46)" fill="#FF0000"/>
<rect x="28" y="37" width="9" height="15" fill="#FF0000"/>
<rect x="28" y="32" width="9" height="23" transform="rotate(-90 28 32)" fill="#FF0000"/>
<rect y="25" width="9" height="30" rx="4.5" fill="#FF0000"/>
<path d="M32.5 50.5C32.5 59 27.5 64 19 64C10.5 64 4.5 60.4411 4.5 50.5" stroke="#FF0000" stroke-width="9"/>
<rect x="51" y="52" width="9" height="37" rx="4.5" transform="rotate(-180 51 52)" fill="#FF0000"/>
<rect x="51" y="23" width="9" height="23" transform="rotate(90 51 23)" fill="#FF0000"/>
<rect x="37" y="32" width="9" height="15" transform="rotate(-180 37 32)" fill="#FF0000"/>
<rect x="66" y="44" width="9" height="30" rx="4.5" transform="rotate(-180 66 44)" fill="#FF0000"/>
<path d="M32.5 18.5C32.5 11 37.5 5 46 5C54.5 5 61.5 8.55887 61.5 18.5" stroke="#FF0000" stroke-width="9"/>
</svg>
